PathFileType	4	(X/Y/Z)	c:/Users/goper/Files/vsCode/490R/osim_files/A01/A01_PWS_01.trc
DataRate	CameraRate	NumFrames	NumMarkers	Units                	OrigDataRate	OrigDataStartFrame	OrigNumFrames
120.00	120.00	6	36	mm	120.0	991	1132
                Frame#	Time	Mobility_markerset:LPSIS			Mobility_markerset:LASIS			Mobility_markerset:LTH1			Mobility_markerset:LTH2			Mobility_markerset:LTH3			Mobility_markerset:LTH4			Mobility_markerset:LLFE			Mobility_markerset:LMFE			Mobility_markerset:LSH1			Mobility_markerset:LSH2			Mobility_markerset:LSH3			Mobility_markerset:LSH4			Mobility_markerset:LLMAL			Mobility_markerset:LMMAL			Mobility_markerset:LCAL			Mobility_markerset:LMTP5			Mobility_markerset:LTOE			Mobility_markerset:LMTP1			Mobility_markerset:RPSIS			Mobility_markerset:RASIS			Mobility_markerset:RTH1			Mobility_markerset:RTH2			Mobility_markerset:RTH3			Mobility_markerset:RTH4			Mobility_markerset:RLFE			Mobility_markerset:RMFE			Mobility_markerset:RSH1			Mobility_markerset:RSH2			Mobility_markerset:RSH3			Mobility_markerset:RSH4			Mobility_markerset:RLMAL			Mobility_markerset:RMMAL			Mobility_markerset:RCAL			Mobility_markerset:RMTP1			Mobility_markerset:RTOE			Mobility_markerset:RMTP5		
		X1	Y1	Z1	X2	Y2	Z2	X3	Y3	Z3	X4	Y4	Z4	X5	Y5	Z5	X6	Y6	Z6	X7	Y7	Z7	X8	Y8	Z8	X9	Y9	Z9	X10	Y10	Z10	X11	Y11	Z11	X12	Y12	Z12	X13	Y13	Z13	X14	Y14	Z14	X15	Y15	Z15	X16	Y16	Z16	X17	Y17	Z17	X18	Y18	Z18	X19	Y19	Z19	X20	Y20	Z20	X21	Y21	Z21	X22	Y22	Z22	X23	Y23	Z23	X24	Y24	Z24	X25	Y25	Z25	X26	Y26	Z26	X27	Y27	Z27	X28	Y28	Z28	X29	Y29	Z29	X30	Y30	Z30	X31	Y31	Z31	X32	Y32	Z32	X33	Y33	Z33	X34	Y34	Z34	X35	Y35	Z35	X36	Y36	Z36

991	8.25000	0.00000	0.00000	0.00000	-3812.95898	986.78784	846.40900	0.00000	0.00000	0.00000	-3774.27319	631.98297	826.77869	-3775.44360	693.00238	866.06934	-3797.39648	651.37109	869.87567	0.00000	0.00000	0.00000	-3978.28516	562.53369	841.84601	0.00000	0.00000	0.00000	0.00000	0.00000	0.00000	-3885.94604	370.90756	879.49139	0.00000	0.00000	0.00000	-3941.06763	89.84019	845.62036	-4022.20801	95.78947	825.69586	-3976.46460	60.38004	763.59009	0.00000	0.00000	0.00000	-4019.22778	75.23729	1006.42340	-4050.31470	62.86884	986.81073	-3841.58765	1055.08594	552.49585	-4029.19092	978.65936	695.27820	-3973.01343	693.75812	474.54288	-3971.54639	650.07996	478.68332	-4012.99268	689.05621	523.08704	-4005.33252	646.89990	518.47522	-3954.25781	503.27853	498.12576	0.00000	0.00000	0.00000	-3833.90063	360.00253	376.09277	-3823.63794	318.06003	361.59763	-3883.31348	334.25095	402.00208	-3867.37866	295.38998	384.83420	-3774.06299	146.34196	333.82709	-3757.12378	139.16048	421.07391	0.00000	0.00000	0.00000	-3854.33813	49.52626	454.36905	-3902.64600	58.85308	427.98871	-3880.21191	44.05639	343.25787
992	8.25833	0.00000	0.00000	0.00000	-3814.86450	987.37756	853.40155	0.00000	0.00000	0.00000	-3776.26611	633.37274	832.63324	-3778.70654	693.63550	872.94830	-3800.12158	652.28418	875.87476	0.00000	0.00000	0.00000	-3980.48682	562.32135	846.21179	-3875.39917	371.92142	821.65118	0.00000	0.00000	0.00000	-3888.73999	370.87338	883.38116	0.00000	0.00000	0.00000	-3941.40674	89.73605	846.19983	-4022.36694	95.63835	826.13025	-3976.45386	60.61866	763.82098	-3950.65942	44.87159	990.65515	-4019.75098	73.79691	1006.76160	-4050.81348	61.50806	987.06067	-3846.21143	1055.12170	559.18768	-4032.00049	978.53571	703.83386	-3978.90186	693.76233	482.63464	-3977.81885	650.09155	486.67404	-4018.72949	689.36969	531.32495	-4011.40430	647.18140	526.68207	-3960.84863	503.26413	505.73703	0.00000	0.00000	0.00000	-3838.80371	362.92438	381.44888	-3828.14624	321.23004	366.26498	-3888.01538	336.28577	406.83948	-3871.62549	297.80551	389.06400	-3776.59155	150.01213	335.69913	-3759.96118	142.12500	422.82642	-3700.27808	133.57059	347.99326	-3854.79810	49.42469	454.69012	-3902.40601	59.07807	428.16489	-3880.89600	44.69357	343.64297
993	8.26667	0.00000	0.00000	0.00000	-3816.65405	988.24811	860.43304	0.00000	0.00000	0.00000	-3778.72534	633.84595	839.02045	-3781.49927	694.51160	878.88385	-3801.84033	653.25647	881.27673	0.00000	0.00000	0.00000	-3982.54907	562.13177	850.48047	0.00000	0.00000	0.00000	0.00000	0.00000	0.00000	-3890.12671	370.69421	886.41772	0.00000	0.00000	0.00000	-3941.61450	89.73737	846.64941	-4022.46240	95.54459	826.51898	-3976.36304	60.81219	764.10431	0.00000	0.00000	0.00000	-4019.95605	72.06933	1007.14801	-4051.31104	60.26969	987.30377	-3850.22339	1055.22583	565.29944	-4034.79883	978.67334	712.68909	-3985.24927	693.87354	490.94760	-3984.38306	650.11469	495.15305	-4024.80469	689.87006	540.00745	-4017.82324	647.62512	535.40399	-3967.92285	503.40057	513.83759	0.00000	0.00000	0.00000	-3844.10010	366.14059	387.32779	-3832.92554	324.72632	371.41846	-3893.14429	338.64108	411.97415	-3876.38281	300.63232	393.63513	-3779.59082	154.47691	337.66623	-3763.87134	144.80128	425.61969	0.00000	0.00000	0.00000	-3855.34204	49.36413	455.02567	-3902.20972	59.18731	428.39566	-3881.48291	45.41928	344.36234
994	8.27500	0.00000	0.00000	0.00000	-3818.22876	989.55768	867.40344	0.00000	0.00000	0.00000	-3780.88892	635.00549	844.36560	0.00000	0.00000	0.00000	-3804.03491	653.73383	886.95789	0.00000	0.00000	0.00000	-3984.45557	561.93701	854.59686	0.00000	0.00000	0.00000	0.00000	0.00000	0.00000	-3890.97925	370.15543	889.16455	0.00000	0.00000	0.00000	-3941.87427	89.73309	847.04150	-4022.57422	95.48666	826.84167	-3976.36865	61.01813	764.30542	-3951.85791	44.11021	991.34680	-4020.51221	71.06687	1007.48602	-4051.70532	59.26099	987.48071	-3855.50781	1055.65100	572.76367	-4037.27686	979.09869	721.51245	-3991.85352	693.97485	499.96759	-3991.44995	650.26843	504.13669	-4031.24170	690.46838	549.16492	-4024.64941	648.10303	544.60968	-3975.51245	503.55109	522.45972	0.00000	0.00000	0.00000	-3849.75024	369.55252	393.79175	-3838.17310	328.61633	377.16898	-3898.71338	341.26343	417.62811	-3881.48877	303.76132	398.68503	-3782.76562	158.91757	341.30307	-3767.40649	148.85439	427.60049	0.00000	0.00000	0.00000	-3855.92163	49.20749	455.46686	-3902.09424	59.30291	428.64325	-3882.52930	46.60025	344.64514
995	8.28333	0.00000	0.00000	0.00000	-3819.70947	990.91705	874.37146	0.00000	0.00000	0.00000	-3782.73926	635.22235	849.87512	-3786.01660	695.88586	889.79346	-3806.20361	653.97949	892.31390	0.00000	0.00000	0.00000	-3986.31055	561.78711	858.54163	0.00000	0.00000	0.00000	0.00000	0.00000	0.00000	-3892.31567	370.08032	892.02502	0.00000	0.00000	0.00000	-3942.08252	89.76012	847.42358	-4022.61963	95.44830	827.12030	-3976.26270	61.22497	764.57214	-3952.12402	43.88054	991.61102	-4020.78491	70.38557	1007.63794	-4052.01807	58.53661	987.58063	-3859.78394	1056.05896	579.72498	-4039.73853	979.85278	730.46564	-3998.85596	694.11047	509.39825	-3998.89331	650.47009	513.58820	-4037.95215	691.15204	558.86804	-4031.83423	648.67969	554.25946	-3983.66553	503.85635	531.69562	0.00000	0.00000	0.00000	-3855.90918	373.24091	400.91687	-3844.03174	332.80603	383.52603	-3904.85815	344.05023	423.81705	-3887.21265	307.12115	404.15402	-3787.12646	164.19618	344.61423	-3771.67041	152.23782	430.87766	-3711.71899	156.07306	356.37894	-3856.61523	49.30965	456.05771	-3902.04346	59.42208	428.93948	-3883.65332	48.21562	345.38147
996	8.29167	0.00000	0.00000	0.00000	-3820.63330	992.27075	879.57800	0.00000	0.00000	0.00000	-3784.82129	635.52881	854.65729	-3788.13818	695.47607	895.64215	-3808.86865	653.70892	897.78467	0.00000	0.00000	0.00000	-3988.01343	561.67371	862.31061	0.00000	0.00000	0.00000	0.00000	0.00000	0.00000	-3892.75171	370.16110	894.16473	0.00000	0.00000	0.00000	-3942.24829	89.81202	847.77948	-4022.70947	95.41599	827.39154	-3976.19263	61.45599	764.75244	-3952.28418	43.53897	991.80829	-4021.56494	70.21573	1007.86182	-4052.31323	57.79853	987.72699	-3863.37646	1056.49304	586.08160	-4041.90137	980.96533	739.58136	-4006.25977	694.29181	519.28754	-4006.74194	650.59027	523.58337	-4044.93140	691.85223	569.04437	-4039.38647	649.32678	564.52454	-3992.62036	504.28693	541.59625	0.00000	0.00000	0.00000	-3862.91113	377.15494	408.67471	-3851.05371	337.41739	390.22086	-3911.69385	347.01874	430.65036	-3893.61157	310.70294	410.32755	-3792.12012	169.86790	348.60825	-3776.63281	156.26791	434.52460	-3716.65967	163.18768	360.74268	-3857.29395	49.37502	456.82077	-3902.23071	59.59513	429.47278	-3884.82324	50.08432	346.65152
